# xmcd CD database file generated by Grip 2.96
# 
# Track frame offsets:
#       150
#       15948
#       39532
#       56849
#       79742
#       99013
#       112834
#       129041
#       158736
#       172759
#       186031
#       200333
# 
# Disc length: 2873 seconds
# 
# Revision: 0
# Processed by: cddbd v1.4PL0 Copyright (c) Steve Scherf et al.
# Submitted via: Grip 2.96
# 
DISCID=7c0b370c
DTITLE=Stretch Williams - Beyond The Storm
DYEAR=1900
DGENRE=
TTITLE0=Mississippi Majic
TTITLE1=You Save Me (Marie)
TTITLE2=Git Back To Texas
TTITLE3=Light Of Life
TTITLE4=The Junction
TTITLE5=Roll The Dice
TTITLE6=Love You In The Mornin'
TTITLE7=Sure Got Cold After The Rain Fell
TTITLE8=Where'd All My Money Go
TTITLE9=$100 Bill (Munyon)
TTITLE10=Steppin' In, Steppin' Out
TTITLE11=Cajun Baby
EXTD=
EXTT0=
EXTT1=
EXTT2=
EXTT3=
EXTT4=
EXTT5=
EXTT6=
EXTT7=
EXTT8=
EXTT9=
EXTT10=
EXTT11=
PLAYORDER=
